#!OML:ASF F:\twosubjects\two\Thursday\Session 1\Rory.ASF
:FULLY-SPECIFIED
:DEGREES
420
root 14.4493 10.5047 5.11972 300.581 -87.6256 -305.991
lowerback 26.8519 0.798615 -2.63702
upperback 5.70746 -0.145176 0.256038
thorax -8.51443 -0.212494 1.88238
lowerneck -15.6868 3.84936 3.64509
upperneck 4.10062 4.4882 -1.57937
head 3.84808 2.16999 -0.721253
rclavicle 4.72114e-015 1.98785e-015
rhumerus -33.7721 -17.5502 -63.327
rradius 42.1292
rwrist 18.2121
rhand -26.9892 35.129
rfingers 7.12502
rthumb -0.409696 5.14966
lclavicle 4.72114e-015 1.98785e-015
lhumerus -30.0626 9.72882 64.2215
lradius 37.5263
lwrist -19.3431
lhand -12.4784 22.3869
lfingers 7.12502
lthumb 13.5959 51.923
rfemur -61.8169 -40.3845 -3.36732
rtibia 133.269
rfoot -36.1383 34.4075
rtoes -36.5394
lfemur -52.7605 46.2607 7.19626
ltibia 130.775
lfoot -20.1903 -54.7433
ltoes -15.1276
421
root 14.4341 10.6396 5.12469 303.76 -87.9525 -309.049
lowerback 26.4788 0.658452 -2.27716
upperback 5.66162 -0.201218 0.319776
thorax -8.37599 -0.24332 1.76085
lowerneck -15.539 3.79108 3.32522
upperneck 3.95532 4.45174 -1.28575
head 3.76527 2.16281 -0.587424
rclavicle -9.44227e-015 -1.98785e-016
rhumerus -33.5178 -17.091 -63.4295
rradius 41.9963
rwrist 17.8625
rhand -28.2855 34.0666
rfingers 7.12502
rthumb -1.66168 4.09331
lclavicle -9.44227e-015 -1.98785e-016
lhumerus -30.2072 9.6931 64.2152
lradius 37.4849
lwrist -18.8173
lhand -12.9722 22.4837
lfingers 7.12502
lthumb 13.12 52.051
rfemur -61.1333 -39.267 -2.34095
rtibia 132.082
rfoot -36.5075 32.9273
rtoes -38.1361
lfemur -52.4752 44.6204 6.82227
ltibia 129.638
lfoot -18.5213 -54.6018
ltoes -13.0988
422
root 14.4158 10.7904 5.12413 304.825 -88.0541 -310.033
lowerback 26.1709 0.594412 -2.13786
upperback 5.58454 -0.22933 0.303635
thorax -8.30593 -0.254968 1.66903
lowerneck -15.1822 3.63195 2.87637
upperneck 3.36914 4.29021 -0.714466
head 3.92322 2.10807 -0.407591
rclavicle 5.2181e-015 2.98177e-015
rhumerus -33.145 -17.293 -63.3187
rradius 41.0131
rwrist 17.7721
rhand -28.292 34.6263
rfingers 7.12502
rthumb -1.66795 4.6531
lclavicle 5.2181e-015 2.98177e-015
lhumerus -30.3732 9.79393 64.1578
lradius 37.5013
lwrist -18.96
lhand -12.4903 22.578
lfingers 7.12502
lthumb 13.5845 52.1148
rfemur -60.4723 -37.2217 -1.6894
rtibia 130.863
rfoot -35.3855 32.886
rtoes -37.2893
lfemur -52.0311 43.0017 6.11503
ltibia 128.378
lfoot -18.5971 -53.9361
ltoes -13.0125
423
root 14.4077 10.9292 5.12172 304.316 -88.0021 -309.485
lowerback 26.082 0.590423 -2.09808
upperback 5.4619 -0.218786 0.227181
thorax -8.39898 -0.244215 1.55754
lowerneck -15.0825 3.55577 2.80755
upperneck 3.4226 4.19869 -0.609346
head 3.91603 2.06844 -0.36876
rclavicle -1.09332e-015 1.49089e-015
rhumerus -33.8889 -17.7055 -63.063
rradius 42.0695
rwrist 17.6676
rhand -27.4705 34.3207
rfingers 7.12502
rthumb -0.874489 4.3427
lclavicle -1.09332e-015 1.49089e-015
lhumerus -30.502 9.72745 64.1366
lradius 37.4834
lwrist -19.3301
lhand -12.3252 22.8536
lfingers 7.12502
lthumb 13.7436 52.3796
rfemur -59.8762 -36.0233 -1.29249
rtibia 129.718
rfoot -34.325 33.3019
rtoes -35.4459
lfemur -51.6967 42.0462 5.35067
ltibia 127.209
lfoot -20.1747 -53.07
ltoes -15.2293
424
root 14.4035 11.0753 5.12782 298.924 -87.9303 -304.089
lowerback 25.9845 0.563964 -2.16659
upperback 5.39496 -0.277624 0.0851827
thorax -8.42254 -0.268413 1.45803
lowerneck -14.8756 3.6104 3.09981
upperneck 3.35304 4.24196 -0.823832
head 3.86581 2.08444 -0.493418
rclavicle -3.32964e-015 -1.15295e-014
rhumerus -33.8915 -17.5818 -63.0481
rradius 42.1362
rwrist 17.5503
rhand -27.1888 33.7392
rfingers 7.12502
rthumb -0.602443 3.7603
lclavicle -3.32964e-015 -1.15295e-014
lhumerus -30.5994 9.94686 63.9561
lradius 37.2434
lwrist -19.5736
lhand -12.6058 22.853
lfingers 7.12502
lthumb 13.4731 52.3972
rfemur -59.2057 -34.8634 -0.925178
rtibia 128.5
rfoot -33.8657 32.8593
rtoes -34.4162
lfemur -51.3292 40.4748 4.24271
ltibia 125.976
lfoot -21.1203 -51.8539
ltoes -16.778
425
root 14.3887 11.2231 5.13301 293.215 -87.8444 -298.478
lowerback 25.7817 0.545325 -2.32757
upperback 5.44421 -0.353549 -0.0495084
thorax -8.26162 -0.305489 1.42396
lowerneck -14.882 3.713 3.51011
upperneck 3.41938 4.32589 -1.10794
head 3.914 2.11905 -0.654774
rclavicle 1.39149e-015 5.96354e-015
rhumerus -33.6262 -17.6496 -63.1233
rradius 41.8773
rwrist 17.786
rhand -27.2586 34.5275
rfingers 7.12502
rthumb -0.66983 4.54883
lclavicle 1.39149e-015 5.96354e-015
lhumerus -30.5746 10.2886 63.7604
lradius 36.9713
lwrist -19.7207
lhand -12.0832 22.4624
lfingers 7.12502
lthumb 13.9768 51.9725
rfemur -58.2655 -33.4652 -0.685289
rtibia 127.29
rfoot -33.8652 31.7974
rtoes -34.2001
lfemur -50.4856 39.3266 3.47343
ltibia 124.711
lfoot -20.8209 -51.1324
ltoes -16.3538
426
root 14.3695 11.3615 5.1349 290.33 -87.8894 -295.565
lowerback 25.5248 0.476078 -2.48031
upperback 5.38844 -0.464522 -0.00738984
thorax -8.18696 -0.352002 1.59121
lowerneck -14.9353 3.7815 3.22315
upperneck 3.65035 4.45487 -0.892825
head 3.99515 2.19114 -0.517181
rclavicle -1.06847e-014 -3.37934e-015
rhumerus -33.0036 -16.8494 -63.3105
rradius 41.0142
rwrist 17.5055
rhand -27.9917 35.2293
rfingers 7.12502
rthumb -1.37792 5.254
lclavicle -1.06847e-014 -3.37934e-015
lhumerus -30.8822 10.5629 63.7202
lradius 36.929
lwrist -19.5677
lhand -11.8084 22.4172
lfingers 7.12502
lthumb 14.2416 51.9089
rfemur -57.5164 -31.9767 -0.197363
rtibia 126.144
rfoot -33.9156 30.7636
rtoes -34.3279
lfemur -49.753 38.4453 2.81745
ltibia 123.501
lfoot -22.8297 -49.6515
ltoes -19.0931
427
root 14.3533 11.5097 5.13929 288.751 -88.0166 -293.859
lowerback 25.3016 0.391957 -2.47572
upperback 5.25134 -0.547961 0.0498466
thorax -8.22146 -0.383636 1.67612
lowerneck -14.9186 3.72862 2.87817
upperneck 3.78174 4.42195 -0.535223
head 4.01699 2.18865 -0.336823
rclavicle 7.50412e-015 5.96354e-016
rhumerus -33.5126 -17.1841 -63.1656
rradius 41.9416
rwrist 17.7916
rhand -28.0494 34.6198
rfingers 7.12502
rthumb -1.43367 4.64485
lclavicle 7.50412e-015 5.96354e-016
lhumerus -31.2705 10.8045 63.6946
lradius 36.9686
lwrist -19.4376
lhand -12.4756 22.8378
lfingers 7.12502
lthumb 13.5987 52.3737
rfemur -56.8884 -30.8285 0.392043
rtibia 124.92
rfoot -33.5865 30.2412
rtoes -34.0917
lfemur -49.211 37.4698 2.06925
ltibia 122.246
lfoot -25.7551 -47.537
ltoes -23.2695
428
root 14.3399 11.6645 5.14242 286.331 -88.19 -291.43
lowerback 25.1802 0.436525 -2.29451
upperback 5.22013 -0.431117 0.100627
thorax -8.20019 -0.329758 1.58998
lowerneck -15.0725 3.60948 2.80614
upperneck 3.84948 4.2721 -0.541645
head 4.06754 2.11284 -0.33543
rclavicle 1.78906e-015 -3.67752e-015
rhumerus -33.6741 -17.1801 -62.9406
rradius 42.2591
rwrist 17.0755
rhand -27.9324 34.0037
rfingers 7.12502
rthumb -1.32061 4.02804
lclavicle 1.78906e-015 -3.67752e-015
lhumerus -31.2232 10.6118 63.9514
lradius 36.8901
lwrist -19.1479
lhand -12.7122 23.1309
lfingers 7.12502
lthumb 13.3706 52.6819
rfemur -56.1313 -29.5365 1.08146
rtibia 123.599
rfoot -33.0572 29.5976
rtoes -32.8296
lfemur -48.5628 36.3283 1.82591
ltibia 121.092
lfoot -24.3892 -47.3995
ltoes -21.0714
429
root 14.3289 11.8183 5.14033 282.981 -88.3134 -288.098
lowerback 25.0309 0.524117 -2.34288
upperback 5.23288 -0.309186 0.262545
thorax -8.11332 -0.270241 1.75653
lowerneck -15.2331 3.5253 2.42014
upperneck 4.00115 4.22268 -0.451078
head 4.13997 2.08688 -0.235618
rclavicle 6.60959e-015 6.95746e-015
rhumerus -33.4376 -17.0195 -62.6424
rradius 42.0495
rwrist 16.6099
rhand -27.5728 35.1402
rfingers 7.12502
rthumb -0.973329 5.16268
lclavicle 6.60959e-015 6.95746e-015
lhumerus -31.1009 10.6496 64.2928
lradius 36.5434
lwrist -19.1288
lhand -12.3137 23.1152
lfingers 7.12502
lthumb 13.7547 52.6406
rfemur -55.3431 -27.9734 1.89763
rtibia 122.231
rfoot -33.1288 27.9298
rtoes -32.6765
lfemur -47.8518 35.3207 1.67117
ltibia 119.933
lfoot -22.9729 -47.4004
ltoes -18.488
430
root 14.3206 11.9603 5.13912 278.033 -88.353 -283.134
lowerback 24.915 0.545347 -2.42914
upperback 5.18077 -0.294203 0.28209
thorax -8.11195 -0.258487 1.822
lowerneck -15.4315 3.4367 2.15346
upperneck 4.69073 4.1271 -0.155104
head 3.92038 2.053 -0.074215
rclavicle 3.77691e-015 3.57812e-015
rhumerus -33.2578 -17.1288 -62.5272
rradius 41.7206
rwrist 16.5641
rhand -26.9289 37.3747
rfingers 7.12502
rthumb -0.351371 7.39528
lclavicle 3.77691e-015 3.57812e-015
lhumerus -31.0843 11.4289 64.1621
lradius 35.99
lwrist -20.0924
lhand -12.0468 22.7829
lfingers 7.12502
lthumb 14.0119 52.2907
rfemur -54.6892 -26.7646 2.53927
rtibia 120.923
rfoot -33.1511 26.4213
rtoes -33.4131
lfemur -47.2009 34.6859 1.10286
ltibia 118.673
lfoot -24.0695 -46.1212
ltoes -19.9149
431
root 14.3071 12.1001 5.14179 270.052 -88.2861 -275.061
lowerback 24.8162 0.620065 -2.34317
upperback 5.03621 -0.178099 0.121204
thorax -8.22836 -0.19848 1.55871
lowerneck -15.5475 3.24709 2.13966
upperneck 4.94678 3.85952 0.0253975
head 4.01132 1.93298 -0.0329168
rclavicle -4.77083e-015 -4.47266e-015
rhumerus -33.7438 -17.6524 -62.4912
rradius 42.0067
rwrist 17.2476
rhand -27.2805 36.2466
rfingers 7.12502
rthumb -0.691006 6.26798
lclavicle -4.77083e-015 -4.47266e-015
lhumerus -31.1202 11.5694 64.0639
lradius 35.7444
lwrist -20.615
lhand -11.9698 22.8311
lfingers 7.12502
lthumb 14.0861 52.3337
rfemur -54.0316 -26.0182 2.87626
rtibia 119.638
rfoot -32.9285 25.8589
rtoes -33.2224
lfemur -46.5875 34.1009 0.353373
ltibia 117.39
lfoot -24.4307 -44.9669
ltoes -20.0337
432
root 14.2831 12.2629 5.14667 269.8 -88.3642 -274.618
lowerback 24.4796 0.544014 -2.09275
upperback 4.88315 -0.19466 0.0603486
thorax -8.22532 -0.204013 1.35062
lowerneck -15.6882 3.19876 2.29986
upperneck 5.29147 3.78372 -0.193788
head 4.14694 1.88862 -0.126221
rclavicle 2.85753e-015 5.26779e-015
rhumerus -34.1136 -17.5791 -62.4386
rradius 42.2165
rwrist 17.1658
rhand -28.1574 34.2168
rfingers 7.12502
rthumb -1.53794 4.24259
lclavicle 2.85753e-015 5.26779e-015
lhumerus -31.2947 11.4637 64.0803
lradius 35.6188
lwrist -20.5534
lhand -11.8731 22.9209
lfingers 7.12502
lthumb 14.1793 52.417
rfemur -53.1623 -24.5978 3.53097
rtibia 118.179
rfoot -32.9287 24.5383
rtoes -33.1903
lfemur -46.0035 33.2515 -0.244464
ltibia 115.993
lfoot -23.9159 -44.3349
ltoes -17.8349
433
root 14.2626 12.4117 5.1544 276.357 -88.5273 -281.015
lowerback 24.1229 0.317507 -1.89746
upperback 4.7809 -0.41527 0.0931785
thorax -8.14692 -0.307547 1.33909
lowerneck -15.7445 3.31363 2.48923
upperneck 5.53354 3.91973 -0.395733
head 4.24024 1.94938 -0.204157
rclavicle 3.47873e-015 -2.98177e-015
rhumerus -33.9715 -17.1479 -62.4873
rradius 42.0061
rwrist 16.989
rhand -27.659 34.7596
rfingers 7.12502
rthumb -1.05661 4.78243
lclavicle 3.47873e-015 -2.98177e-015
lhumerus -31.539 11.9014 63.9085
lradius 35.3449
lwrist -20.841
lhand -11.8601 22.5301
lfingers 7.12502
lthumb 14.1918 52.0254
rfemur -52.3725 -24.1558 4.0812
rtibia 116.832
rfoot -33.1067 23.5287
rtoes -34.2626
lfemur -45.4758 32.2214 -0.774287
ltibia 114.662
lfoot -24.0222 -43.3364
ltoes -16.9917
